<svg xmlns="http://www.w3.org/2000/svg" width="1660" height="1120" viewBox="0 0 1660 1120">
<defs><marker id="ar" viewBox="0 0 10 10" refX="9" refY="5" markerWidth="7" markerHeight="7" orient="auto-start-reverse"><path d="M 0 0 L 10 5 L 0 10 z" fill="context-stroke"/></marker><marker id="arw" viewBox="0 0 10 10" refX="9" refY="5" markerWidth="6" markerHeight="6" orient="auto-start-reverse"><path d="M 0 0 L 10 5 L 0 10 z" fill="#c8541f"/></marker><marker id="arb" viewBox="0 0 10 10" refX="9" refY="5" markerWidth="6" markerHeight="6" orient="auto-start-reverse"><path d="M 0 0 L 10 5 L 0 10 z" fill="#2f6f8f"/></marker></defs>
<rect x="0.0" y="0.0" width="1660.0" height="1120.0" rx="0" fill="#ffffff" stroke="none" stroke-width="1.4"/>
<rect x="18.0" y="18.0" width="1624.0" height="1084.0" rx="0" fill="none" stroke="#1c1c1c" stroke-width="1.6"/>
<text x="150.0" y="92.0" font-family="DejaVu Sans, Arial, sans-serif" font-size="15" font-weight="700" font-style="normal" fill="#1c1c1c" text-anchor="start">1  OPPRISS - UTFOLDET</text>
<text x="150.0" y="109.0" font-family="DejaVu Sans, Arial, sans-serif" font-size="11.5" font-weight="400" font-style="normal" fill="#555" text-anchor="start">Sett forfra, malestokk 1:12 (A3)</text>
<line x1="95.0" y1="800.0" x2="435.4" y2="800.0" stroke="#1c1c1c" stroke-width="1.8" stroke-linecap="butt"/>
<line x1="100.0" y1="800.0" x2="90.0" y2="811.0" stroke="#1c1c1c" stroke-width="0.7" stroke-linecap="butt"/>
<line x1="124.0" y1="800.0" x2="114.0" y2="811.0" stroke="#1c1c1c" stroke-width="0.7" stroke-linecap="butt"/>
<line x1="148.0" y1="800.0" x2="138.0" y2="811.0" stroke="#1c1c1c" stroke-width="0.7" stroke-linecap="butt"/>
<line x1="172.0" y1="800.0" x2="162.0" y2="811.0" stroke="#1c1c1c" stroke-width="0.7" stroke-linecap="butt"/>
<line x1="196.0" y1="800.0" x2="186.0" y2="811.0" stroke="#1c1c1c" stroke-width="0.7" stroke-linecap="butt"/>
<line x1="220.0" y1="800.0" x2="210.0" y2="811.0" stroke="#1c1c1c" stroke-width="0.7" stroke-linecap="butt"/>
<line x1="244.0" y1="800.0" x2="234.0" y2="811.0" stroke="#1c1c1c" stroke-width="0.7" stroke-linecap="butt"/>
<line x1="268.0" y1="800.0" x2="258.0" y2="811.0" stroke="#1c1c1c" stroke-width="0.7" stroke-linecap="butt"/>
<line x1="292.0" y1="800.0" x2="282.0" y2="811.0" stroke="#1c1c1c" stroke-width="0.7" stroke-linecap="butt"/>
<line x1="316.0" y1="800.0" x2="306.0" y2="811.0" stroke="#1c1c1c" stroke-width="0.7" stroke-linecap="butt"/>
<line x1="340.0" y1="800.0" x2="330.0" y2="811.0" stroke="#1c1c1c" stroke-width="0.7" stroke-linecap="butt"/>
<line x1="364.0" y1="800.0" x2="354.0" y2="811.0" stroke="#1c1c1c" stroke-width="0.7" stroke-linecap="butt"/>
<line x1="388.0" y1="800.0" x2="378.0" y2="811.0" stroke="#1c1c1c" stroke-width="0.7" stroke-linecap="butt"/>
<line x1="412.0" y1="800.0" x2="402.0" y2="811.0" stroke="#1c1c1c" stroke-width="0.7" stroke-linecap="butt"/>
<rect x="150.0" y="159.2" width="230.4" height="619.2" rx="0" fill="#eceae5" stroke="#1c1c1c" stroke-width="1.4"/>
<rect x="150.0" y="159.2" width="230.4" height="21.6" rx="0" fill="#dedad2" stroke="#1c1c1c" stroke-width="1.4"/>
<line x1="164.0" y1="180.8" x2="366.4" y2="180.8" stroke="#1c1c1c" stroke-width="2.2" stroke-linecap="butt"/>
<path d="M 200.7 180.8 q 0 14 8 18" fill="none" stroke="#1c1c1c" stroke-width="1.1"/>
<path d="M 237.6 180.8 q 0 14 8 18" fill="none" stroke="#1c1c1c" stroke-width="1.1"/>
<path d="M 274.4 180.8 q 0 14 8 18" fill="none" stroke="#1c1c1c" stroke-width="1.1"/>
<path d="M 311.3 180.8 q 0 14 8 18" fill="none" stroke="#1c1c1c" stroke-width="1.1"/>
<line x1="265.2" y1="180.8" x2="265.2" y2="699.2" stroke="#1c1c1c" stroke-width="1.1" stroke-linecap="butt" stroke-dasharray="7 5"/>
<line x1="260.2" y1="238.4" x2="270.2" y2="238.4" stroke="#1c1c1c" stroke-width="0.8" stroke-linecap="butt"/>
<line x1="260.2" y1="353.6" x2="270.2" y2="353.6" stroke="#1c1c1c" stroke-width="0.8" stroke-linecap="butt"/>
<line x1="260.2" y1="468.8" x2="270.2" y2="468.8" stroke="#1c1c1c" stroke-width="0.8" stroke-linecap="butt"/>
<line x1="260.2" y1="576.8" x2="270.2" y2="576.8" stroke="#1c1c1c" stroke-width="0.8" stroke-linecap="butt"/>
<line x1="154.0" y1="159.2" x2="154.0" y2="778.4" stroke="#1c1c1c" stroke-width="2.0" stroke-linecap="butt"/>
<line x1="376.4" y1="159.2" x2="376.4" y2="778.4" stroke="#1c1c1c" stroke-width="2.0" stroke-linecap="butt"/>
<rect x="150.0" y="699.2" width="230.4" height="21.6" rx="0" fill="#cfc9be" stroke="#1c1c1c" stroke-width="1.4"/>
<rect x="156.0" y="720.8" width="218.4" height="57.6" rx="0" fill="#c9c3b8" stroke="#1c1c1c" stroke-width="1.4"/>
<rect x="207.6" y="720.8" width="115.2" height="57.6" rx="0" fill="#d9d4cb" stroke="#1c1c1c" stroke-width="1.4" stroke-dasharray="6 4"/>
<text x="265.2" y="754.6" font-family="DejaVu Sans, Arial, sans-serif" font-size="10.5" font-weight="400" font-style="normal" fill="#444" text-anchor="middle">KLIMAMODUL</text>
<rect x="157.0" y="778.4" width="18.0" height="13.6" rx="0" fill="#bfb9ae" stroke="#1c1c1c" stroke-width="1.4"/>
<circle cx="166.0" cy="793.0" r="7" fill="#ffffff" stroke="#1c1c1c" stroke-width="1.3"/>
<rect x="355.4" y="778.4" width="18.0" height="13.6" rx="0" fill="#bfb9ae" stroke="#1c1c1c" stroke-width="1.4"/>
<circle cx="364.4" cy="793.0" r="7" fill="#ffffff" stroke="#1c1c1c" stroke-width="1.3"/>
<line x1="104.0" y1="159.2" x2="104.0" y2="800.0" stroke="#7a2f1e" stroke-width="1.0" stroke-linecap="butt"/>
<line x1="98.0" y1="159.2" x2="110.0" y2="159.2" stroke="#7a2f1e" stroke-width="1.0" stroke-linecap="butt"/>
<line x1="98.0" y1="800.0" x2="110.0" y2="800.0" stroke="#7a2f1e" stroke-width="1.0" stroke-linecap="butt"/>
<text x="96.0" y="479.6" font-family="DejaVu Sans, Arial, sans-serif" font-size="12" fill="#7a2f1e" text-anchor="middle" transform="rotate(-90 96.0 479.6)">1780</text>
<line x1="130.0" y1="180.8" x2="130.0" y2="699.2" stroke="#7a2f1e" stroke-width="1.0" stroke-linecap="butt"/>
<line x1="124.0" y1="180.8" x2="136.0" y2="180.8" stroke="#7a2f1e" stroke-width="1.0" stroke-linecap="butt"/>
<line x1="124.0" y1="699.2" x2="136.0" y2="699.2" stroke="#7a2f1e" stroke-width="1.0" stroke-linecap="butt"/>
<text x="122.0" y="440.0" font-family="DejaVu Sans, Arial, sans-serif" font-size="11" fill="#7a2f1e" text-anchor="middle" transform="rotate(-90 122.0 440.0)">1440 fri torkehoyde</text>
<line x1="150.0" y1="125.2" x2="380.4" y2="125.2" stroke="#7a2f1e" stroke-width="1.0" stroke-linecap="butt"/>
<line x1="150.0" y1="119.2" x2="150.0" y2="131.2" stroke="#7a2f1e" stroke-width="1.0" stroke-linecap="butt"/>
<line x1="380.4" y1="119.2" x2="380.4" y2="131.2" stroke="#7a2f1e" stroke-width="1.0" stroke-linecap="butt"/>
<text x="265.2" y="118.2" font-family="DejaVu Sans, Arial, sans-serif" font-size="12" font-weight="400" font-style="normal" fill="#7a2f1e" text-anchor="middle">640</text>
<line x1="402.4" y1="720.8" x2="402.4" y2="778.4" stroke="#7a2f1e" stroke-width="1.0" stroke-linecap="butt"/>
<line x1="396.4" y1="720.8" x2="408.4" y2="720.8" stroke="#7a2f1e" stroke-width="1.0" stroke-linecap="butt"/>
<line x1="396.4" y1="778.4" x2="408.4" y2="778.4" stroke="#7a2f1e" stroke-width="1.0" stroke-linecap="butt"/>
<text x="416.4" y="749.6" font-family="DejaVu Sans, Arial, sans-serif" font-size="11" fill="#7a2f1e" text-anchor="middle" transform="rotate(-90 416.4 749.6)">160</text>
<line x1="402.4" y1="778.4" x2="402.4" y2="800.0" stroke="#7a2f1e" stroke-width="1.0" stroke-linecap="butt"/>
<line x1="396.4" y1="778.4" x2="408.4" y2="778.4" stroke="#7a2f1e" stroke-width="1.0" stroke-linecap="butt"/>
<line x1="396.4" y1="800.0" x2="408.4" y2="800.0" stroke="#7a2f1e" stroke-width="1.0" stroke-linecap="butt"/>
<text x="416.4" y="789.2" font-family="DejaVu Sans, Arial, sans-serif" font-size="11" fill="#7a2f1e" text-anchor="middle" transform="rotate(-90 416.4 789.2)">60</text>
<line x1="292.8" y1="180.8" x2="464.4" y2="173.6" stroke="#1c1c1c" stroke-width="0.9" stroke-linecap="butt"/>
<circle cx="464.4" cy="173.6" r="11" fill="#ffffff" stroke="#1c1c1c" stroke-width="1.2"/>
<text x="464.4" y="178.1" font-family="DejaVu Sans, Arial, sans-serif" font-size="13" font-weight="600" font-style="normal" fill="#1c1c1c" text-anchor="middle">1</text>
<line x1="329.7" y1="285.2" x2="464.4" y2="285.2" stroke="#1c1c1c" stroke-width="0.9" stroke-linecap="butt"/>
<circle cx="464.4" cy="285.2" r="11" fill="#ffffff" stroke="#1c1c1c" stroke-width="1.2"/>
<text x="464.4" y="289.7" font-family="DejaVu Sans, Arial, sans-serif" font-size="13" font-weight="600" font-style="normal" fill="#1c1c1c" text-anchor="middle">2</text>
<line x1="376.4" y1="404.0" x2="464.4" y2="404.0" stroke="#1c1c1c" stroke-width="0.9" stroke-linecap="butt"/>
<circle cx="464.4" cy="404.0" r="11" fill="#ffffff" stroke="#1c1c1c" stroke-width="1.2"/>
<text x="464.4" y="408.5" font-family="DejaVu Sans, Arial, sans-serif" font-size="13" font-weight="600" font-style="normal" fill="#1c1c1c" text-anchor="middle">3</text>
<line x1="370.4" y1="692.0" x2="464.4" y2="576.8" stroke="#1c1c1c" stroke-width="0.9" stroke-linecap="butt"/>
<circle cx="464.4" cy="576.8" r="11" fill="#ffffff" stroke="#1c1c1c" stroke-width="1.2"/>
<text x="464.4" y="581.3" font-family="DejaVu Sans, Arial, sans-serif" font-size="13" font-weight="600" font-style="normal" fill="#1c1c1c" text-anchor="middle">4</text>
<line x1="305.2" y1="746.0" x2="464.4" y2="681.2" stroke="#1c1c1c" stroke-width="0.9" stroke-linecap="butt"/>
<circle cx="464.4" cy="681.2" r="11" fill="#ffffff" stroke="#1c1c1c" stroke-width="1.2"/>
<text x="464.4" y="685.7" font-family="DejaVu Sans, Arial, sans-serif" font-size="13" font-weight="600" font-style="normal" fill="#1c1c1c" text-anchor="middle">5</text>
<line x1="364.4" y1="789.2" x2="464.4" y2="778.4" stroke="#1c1c1c" stroke-width="0.9" stroke-linecap="butt"/>
<circle cx="464.4" cy="778.4" r="11" fill="#ffffff" stroke="#1c1c1c" stroke-width="1.2"/>
<text x="464.4" y="782.9" font-family="DejaVu Sans, Arial, sans-serif" font-size="13" font-weight="600" font-style="normal" fill="#1c1c1c" text-anchor="middle">6</text>
<text x="610.0" y="92.0" font-family="DejaVu Sans, Arial, sans-serif" font-size="15" font-weight="700" font-style="normal" fill="#1c1c1c" text-anchor="start">2  SNITT B-B - LUFTVEI</text>
<text x="610.0" y="109.0" font-family="DejaVu Sans, Arial, sans-serif" font-size="11.5" font-weight="400" font-style="normal" fill="#555" text-anchor="start">Sett fra siden; front til venstre, retursjakt bak</text>
<line x1="565.0" y1="800.0" x2="960.4" y2="800.0" stroke="#1c1c1c" stroke-width="1.8" stroke-linecap="butt"/>
<line x1="570.0" y1="800.0" x2="560.0" y2="811.0" stroke="#1c1c1c" stroke-width="0.7" stroke-linecap="butt"/>
<line x1="594.0" y1="800.0" x2="584.0" y2="811.0" stroke="#1c1c1c" stroke-width="0.7" stroke-linecap="butt"/>
<line x1="618.0" y1="800.0" x2="608.0" y2="811.0" stroke="#1c1c1c" stroke-width="0.7" stroke-linecap="butt"/>
<line x1="642.0" y1="800.0" x2="632.0" y2="811.0" stroke="#1c1c1c" stroke-width="0.7" stroke-linecap="butt"/>
<line x1="666.0" y1="800.0" x2="656.0" y2="811.0" stroke="#1c1c1c" stroke-width="0.7" stroke-linecap="butt"/>
<line x1="690.0" y1="800.0" x2="680.0" y2="811.0" stroke="#1c1c1c" stroke-width="0.7" stroke-linecap="butt"/>
<line x1="714.0" y1="800.0" x2="704.0" y2="811.0" stroke="#1c1c1c" stroke-width="0.7" stroke-linecap="butt"/>
<line x1="738.0" y1="800.0" x2="728.0" y2="811.0" stroke="#1c1c1c" stroke-width="0.7" stroke-linecap="butt"/>
<line x1="762.0" y1="800.0" x2="752.0" y2="811.0" stroke="#1c1c1c" stroke-width="0.7" stroke-linecap="butt"/>
<line x1="786.0" y1="800.0" x2="776.0" y2="811.0" stroke="#1c1c1c" stroke-width="0.7" stroke-linecap="butt"/>
<line x1="810.0" y1="800.0" x2="800.0" y2="811.0" stroke="#1c1c1c" stroke-width="0.7" stroke-linecap="butt"/>
<line x1="834.0" y1="800.0" x2="824.0" y2="811.0" stroke="#1c1c1c" stroke-width="0.7" stroke-linecap="butt"/>
<line x1="858.0" y1="800.0" x2="848.0" y2="811.0" stroke="#1c1c1c" stroke-width="0.7" stroke-linecap="butt"/>
<line x1="882.0" y1="800.0" x2="872.0" y2="811.0" stroke="#1c1c1c" stroke-width="0.7" stroke-linecap="butt"/>
<line x1="906.0" y1="800.0" x2="896.0" y2="811.0" stroke="#1c1c1c" stroke-width="0.7" stroke-linecap="butt"/>
<rect x="610.0" y="159.2" width="230.4" height="619.2" rx="0" fill="#f6f5f2" stroke="#1c1c1c" stroke-width="1.4"/>
<rect x="818.8" y="170.0" width="21.6" height="529.2" rx="0" fill="#e3ecf1" stroke="#1c1c1c" stroke-width="1.4"/>
<text x="829.6" y="324.8" font-family="DejaVu Sans, Arial, sans-serif" font-size="9.5" font-weight="400" font-style="normal" fill="#2f6f8f" text-anchor="middle">RETUR</text>
<line x1="620.0" y1="180.8" x2="808.8" y2="180.8" stroke="#1c1c1c" stroke-width="2.2" stroke-linecap="butt"/>
<path d="M 692.0 180.8 l -22 -17 l 44 0 z" fill="#ffffff" stroke="#1c1c1c" stroke-width="1.4"/>
<rect x="646.0" y="188.7" width="92.0" height="154.8" rx="0" fill="#ded9d0" stroke="#1c1c1c" stroke-width="1.4"/>
<text x="692.0" y="252.8" font-family="DejaVu Sans, Arial, sans-serif" font-size="9.5" font-weight="400" font-style="normal" fill="#555" text-anchor="middle">skalljakke</text>
<rect x="660.0" y="353.6" width="64.0" height="136.8" rx="0" fill="#e6e2da" stroke="#1c1c1c" stroke-width="1.4"/>
<text x="692.0" y="407.6" font-family="DejaVu Sans, Arial, sans-serif" font-size="9.5" font-weight="400" font-style="normal" fill="#555" text-anchor="middle">ullag</text>
<rect x="744.0" y="519.2" width="30.0" height="136.8" rx="0" fill="#e6e2da" stroke="#1c1c1c" stroke-width="1.4"/>
<path d="M 744.0 656.0 l 52 0 l 0 22 l -52 0 z" fill="#e6e2da" stroke="#1c1c1c" stroke-width="1.4"/>
<line x1="759.0" y1="677.6" x2="759.0" y2="656.0" stroke="#c8541f" stroke-width="3.0" stroke-linecap="butt"/>
<line x1="770.0" y1="548.0" x2="848.4" y2="551.6" stroke="#1c1c1c" stroke-width="0.9" stroke-linecap="butt"/>
<text x="852.4" y="553.8" font-family="DejaVu Sans, Arial, sans-serif" font-size="10" font-weight="400" font-style="normal" fill="#1c1c1c" text-anchor="start">stovel tredd pa dyseport</text>
<rect x="610.0" y="699.2" width="230.4" height="21.6" rx="0" fill="#cfc9be" stroke="#1c1c1c" stroke-width="1.4"/>
<text x="650.0" y="696.0" font-family="DejaVu Sans, Arial, sans-serif" font-size="10" font-weight="400" font-style="normal" fill="#333" text-anchor="start">PLENUM</text>
<rect x="618.0" y="720.8" width="214.4" height="57.6" rx="0" fill="#d9d4cb" stroke="#1c1c1c" stroke-width="1.4"/>
<rect x="628.0" y="730.8" width="26.0" height="37.6" rx="0" fill="#ffffff" stroke="#1c1c1c" stroke-width="1.4"/>
<text x="641.0" y="749.6" font-family="DejaVu Sans, Arial, sans-serif" font-size="10" font-weight="400" font-style="normal" fill="#1c1c1c" text-anchor="middle">F</text>
<circle cx="684.0" cy="749.6" r="17" fill="#ffffff" stroke="#1c1c1c" stroke-width="1.3"/>
<text x="684.0" y="753.6" font-family="DejaVu Sans, Arial, sans-serif" font-size="11" font-weight="400" font-style="normal" fill="#1c1c1c" text-anchor="middle">V</text>
<rect x="710.0" y="730.8" width="30.0" height="37.6" rx="0" fill="#f7ded2" stroke="#1c1c1c" stroke-width="1.4"/>
<text x="725.0" y="753.6" font-family="DejaVu Sans, Arial, sans-serif" font-size="9.5" font-weight="400" font-style="normal" fill="#c8541f" text-anchor="middle">PTC</text>
<line x1="758.0" y1="732.8" x2="786.0" y2="764.4" stroke="#1c1c1c" stroke-width="1.6" stroke-linecap="butt"/>
<text x="772.0" y="774.4" font-family="DejaVu Sans, Arial, sans-serif" font-size="9" font-weight="400" font-style="normal" fill="#555" text-anchor="middle">spjeld</text>
<rect x="832.4" y="742.4" width="24.0" height="32.4" rx="0" fill="#ffffff" stroke="#1c1c1c" stroke-width="1.4"/>
<path d="M 856.4 753.2 q 66 0 78 62" fill="none" stroke="#2f6f8f" stroke-width="8" stroke-dasharray="9 7"/>
<text x="872.4" y="724.4" font-family="DejaVu Sans, Arial, sans-serif" font-size="10.5" font-weight="400" font-style="normal" fill="#2f6f8f" text-anchor="start">avtrekk O100 mm</text>
<text x="872.4" y="742.4" font-family="DejaVu Sans, Arial, sans-serif" font-size="10.5" font-weight="400" font-style="normal" fill="#2f6f8f" text-anchor="start">til vindusplate</text>
<path d="M 630.0 677.6 L 630.0 224.0" fill="none" stroke="#c8541f" stroke-width="2.2" marker-end="url(#arw)"/>
<path d="M 786.0 677.6 L 786.0 224.0" fill="none" stroke="#c8541f" stroke-width="2.2" marker-end="url(#arw)"/>
<path d="M 829.6 195.2 L 829.6 677.6" fill="none" stroke="#2f6f8f" stroke-width="2.2" marker-end="url(#arb)"/>
<path d="M 760.0 185.8 L 810.8 182.2" fill="none" stroke="#2f6f8f" stroke-width="1.8" marker-end="url(#arb)"/>
<text x="852.4" y="185.8" font-family="DejaVu Sans, Arial, sans-serif" font-size="10" font-weight="400" font-style="normal" fill="#2f6f8f" text-anchor="start">mettet luft ut av</text>
<text x="852.4" y="203.8" font-family="DejaVu Sans, Arial, sans-serif" font-size="10" font-weight="400" font-style="normal" fill="#2f6f8f" text-anchor="start">plagget, ca. 38 C</text>
<text x="636.0" y="650.0" font-family="DejaVu Sans, Arial, sans-serif" font-size="10.5" font-weight="400" font-style="normal" fill="#c8541f" text-anchor="start">tilluft</text>
<rect x="617.0" y="778.4" width="18.0" height="13.6" rx="0" fill="#bfb9ae" stroke="#1c1c1c" stroke-width="1.4"/>
<circle cx="626.0" cy="793.0" r="7" fill="#ffffff" stroke="#1c1c1c" stroke-width="1.3"/>
<rect x="815.4" y="778.4" width="18.0" height="13.6" rx="0" fill="#bfb9ae" stroke="#1c1c1c" stroke-width="1.4"/>
<circle cx="824.4" cy="793.0" r="7" fill="#ffffff" stroke="#1c1c1c" stroke-width="1.3"/>
<line x1="610.0" y1="125.2" x2="840.4" y2="125.2" stroke="#7a2f1e" stroke-width="1.0" stroke-linecap="butt"/>
<line x1="610.0" y1="119.2" x2="610.0" y2="131.2" stroke="#7a2f1e" stroke-width="1.0" stroke-linecap="butt"/>
<line x1="840.4" y1="119.2" x2="840.4" y2="131.2" stroke="#7a2f1e" stroke-width="1.0" stroke-linecap="butt"/>
<text x="725.2" y="118.2" font-family="DejaVu Sans, Arial, sans-serif" font-size="12" font-weight="400" font-style="normal" fill="#7a2f1e" text-anchor="middle">640 dybde</text>
<line x1="829.6" y1="569.6" x2="906.4" y2="616.4" stroke="#1c1c1c" stroke-width="0.9" stroke-linecap="butt"/>
<text x="910.4" y="618.6" font-family="DejaVu Sans, Arial, sans-serif" font-size="10" font-weight="400" font-style="normal" fill="#1c1c1c" text-anchor="start">retursjakt 60 dyp</text>
<text x="1010.0" y="92.0" font-family="DejaVu Sans, Arial, sans-serif" font-size="15" font-weight="700" font-style="normal" fill="#1c1c1c" text-anchor="start">3  PLAN C-C</text>
<text x="1010.0" y="109.0" font-family="DejaVu Sans, Arial, sans-serif" font-size="11.5" font-weight="400" font-style="normal" fill="#555" text-anchor="start">Snitt rett over plenum, 1:14</text>
<rect x="1010.0" y="175.0" width="192.0" height="192.0" rx="0" fill="#eceae5" stroke="#1c1c1c" stroke-width="1.4"/>
<rect x="1184.0" y="175.0" width="18.0" height="192.0" rx="0" fill="#e3ecf1" stroke="#1c1c1c" stroke-width="1.4"/>
<rect x="1010.0" y="310.0" width="174.0" height="57.0" rx="0" fill="#cfc9be" stroke="#1c1c1c" stroke-width="1.4"/>
<line x1="1018.0" y1="245.0" x2="1176.0" y2="245.0" stroke="#1c1c1c" stroke-width="2.0" stroke-linecap="butt"/>
<circle cx="1030.0" cy="330.0" r="6.5" fill="#ffffff" stroke="#1c1c1c" stroke-width="1.2"/>
<circle cx="1052.0" cy="330.0" r="6.5" fill="#ffffff" stroke="#1c1c1c" stroke-width="1.2"/>
<circle cx="1074.0" cy="330.0" r="6.5" fill="#ffffff" stroke="#1c1c1c" stroke-width="1.2"/>
<circle cx="1096.0" cy="330.0" r="6.5" fill="#ffffff" stroke="#1c1c1c" stroke-width="1.2"/>
<circle cx="1118.0" cy="330.0" r="6.5" fill="#ffffff" stroke="#1c1c1c" stroke-width="1.2"/>
<circle cx="1140.0" cy="330.0" r="6.5" fill="#ffffff" stroke="#1c1c1c" stroke-width="1.2"/>
<line x1="1030.0" y1="330.0" x2="984.0" y2="407.0" stroke="#1c1c1c" stroke-width="0.9" stroke-linecap="butt"/>
<line x1="1193.0" y1="189.0" x2="1236.0" y2="169.0" stroke="#1c1c1c" stroke-width="0.9" stroke-linecap="butt"/>
<text x="1240.0" y="165.0" font-family="DejaVu Sans, Arial, sans-serif" font-size="10" font-weight="400" font-style="normal" fill="#2f6f8f" text-anchor="start">retursjakt</text>
<line x1="1070.0" y1="245.0" x2="1236.0" y2="227.0" stroke="#1c1c1c" stroke-width="0.9" stroke-linecap="butt"/>
<text x="1240.0" y="223.0" font-family="DejaVu Sans, Arial, sans-serif" font-size="10" font-weight="400" font-style="normal" fill="#1c1c1c" text-anchor="start">hengerskinne O16</text>
<text x="980.0" y="421.0" font-family="DejaVu Sans, Arial, sans-serif" font-size="10" font-weight="400" font-style="normal" fill="#1c1c1c" text-anchor="start">6 x dyseport O22 i plenumforkant,</text>
<text x="980.0" y="438.0" font-family="DejaVu Sans, Arial, sans-serif" font-size="10" font-weight="400" font-style="normal" fill="#1c1c1c" text-anchor="start">selvlukkende ventil</text>
<line x1="1010.0" y1="155.0" x2="1202.0" y2="155.0" stroke="#7a2f1e" stroke-width="1.0" stroke-linecap="butt"/>
<line x1="1010.0" y1="149.0" x2="1010.0" y2="161.0" stroke="#7a2f1e" stroke-width="1.0" stroke-linecap="butt"/>
<line x1="1202.0" y1="149.0" x2="1202.0" y2="161.0" stroke="#7a2f1e" stroke-width="1.0" stroke-linecap="butt"/>
<text x="1106.0" y="148.0" font-family="DejaVu Sans, Arial, sans-serif" font-size="12" font-weight="400" font-style="normal" fill="#7a2f1e" text-anchor="middle">640</text>
<line x1="990.0" y1="175.0" x2="990.0" y2="367.0" stroke="#7a2f1e" stroke-width="1.0" stroke-linecap="butt"/>
<line x1="984.0" y1="175.0" x2="996.0" y2="175.0" stroke="#7a2f1e" stroke-width="1.0" stroke-linecap="butt"/>
<line x1="984.0" y1="367.0" x2="996.0" y2="367.0" stroke="#7a2f1e" stroke-width="1.0" stroke-linecap="butt"/>
<text x="982.0" y="271.0" font-family="DejaVu Sans, Arial, sans-serif" font-size="11" fill="#7a2f1e" text-anchor="middle" transform="rotate(-90 982.0 271.0)">640</text>
<text x="1330.0" y="92.0" font-family="DejaVu Sans, Arial, sans-serif" font-size="15" font-weight="700" font-style="normal" fill="#1c1c1c" text-anchor="start"></text>
<text x="1330.0" y="120.0" font-family="DejaVu Sans, Arial, sans-serif" font-size="15" font-weight="700" font-style="normal" fill="#1c1c1c" text-anchor="start">4  DETALJ C - HJORNEKNUTE</text>
<text x="1330.0" y="137.0" font-family="DejaVu Sans, Arial, sans-serif" font-size="11.5" font-weight="400" font-style="normal" fill="#555" text-anchor="start">Skala 1:2</text>
<rect x="1400.0" y="209.0" width="52.0" height="52.0" rx="7" fill="#d9d4cb" stroke="#1c1c1c" stroke-width="1.4"/>
<rect x="1418.0" y="139.0" width="16.0" height="70.0" rx="0" fill="#ffffff" stroke="#1c1c1c" stroke-width="1.4"/>
<rect x="1452.0" y="227.0" width="78.0" height="16.0" rx="0" fill="#ffffff" stroke="#1c1c1c" stroke-width="1.4"/>
<rect x="1322.0" y="227.0" width="78.0" height="16.0" rx="0" fill="#ffffff" stroke="#1c1c1c" stroke-width="1.4"/>
<circle cx="1484.0" cy="235.0" r="5" fill="#ffffff" stroke="#1c1c1c" stroke-width="1.2"/>
<line x1="1484.0" y1="229.0" x2="1500.0" y2="183.0" stroke="#1c1c1c" stroke-width="0.9" stroke-linecap="butt"/>
<text x="1502.0" y="179.0" font-family="DejaVu Sans, Arial, sans-serif" font-size="10" font-weight="400" font-style="normal" fill="#1c1c1c" text-anchor="start">fjaerknapp O8</text>
<line x1="1426.0" y1="151.0" x2="1500.0" y2="147.0" stroke="#1c1c1c" stroke-width="0.9" stroke-linecap="butt"/>
<text x="1502.0" y="143.0" font-family="DejaVu Sans, Arial, sans-serif" font-size="10" font-weight="400" font-style="normal" fill="#1c1c1c" text-anchor="start">rammerar O22 x 1,2</text>
<line x1="1366.0" y1="227.0" x2="1366.0" y2="243.0" stroke="#1c1c1c" stroke-width="1.0" stroke-linecap="butt" stroke-dasharray="3 3"/>
<line x1="1322.0" y1="275.0" x2="1366.0" y2="275.0" stroke="#7a2f1e" stroke-width="1.0" stroke-linecap="butt"/>
<line x1="1322.0" y1="269.0" x2="1322.0" y2="281.0" stroke="#7a2f1e" stroke-width="1.0" stroke-linecap="butt"/>
<line x1="1366.0" y1="269.0" x2="1366.0" y2="281.0" stroke="#7a2f1e" stroke-width="1.0" stroke-linecap="butt"/>
<text x="1344.0" y="268.0" font-family="DejaVu Sans, Arial, sans-serif" font-size="10" font-weight="400" font-style="normal" fill="#7a2f1e" text-anchor="middle">45 innstikk</text>
<text x="1330.0" y="340.0" font-family="DejaVu Sans, Arial, sans-serif" font-size="10.5" font-weight="400" font-style="normal" fill="#1c1c1c" text-anchor="start">Boring O22,2 +0,15/0  (kompensert for MJF-krymp)</text>
<text x="1330.0" y="358.0" font-family="DejaVu Sans, Arial, sans-serif" font-size="10.5" font-weight="400" font-style="normal" fill="#1c1c1c" text-anchor="start">M5 settskrue 90 gr. fra fjaerknapp</text>
<text x="1330.0" y="376.0" font-family="DejaVu Sans, Arial, sans-serif" font-size="10.5" font-weight="400" font-style="normal" fill="#1c1c1c" text-anchor="start">PA12-GB, veggtykkelse 3,2 mm</text>
<text x="1010.0" y="538.0" font-family="DejaVu Sans, Arial, sans-serif" font-size="15" font-weight="700" font-style="normal" fill="#1c1c1c" text-anchor="start">5  DETALJ A - KLIMAMODUL, SNITT</text>
<text x="1010.0" y="555.0" font-family="DejaVu Sans, Arial, sans-serif" font-size="11.5" font-weight="400" font-style="normal" fill="#555" text-anchor="start">Skala 1:4</text>
<rect x="1010.0" y="570.0" width="470.0" height="165.0" rx="5" fill="#d9d4cb" stroke="#1c1c1c" stroke-width="1.4"/>
<rect x="1022.0" y="582.0" width="34.0" height="141.0" rx="0" fill="#ffffff" stroke="#1c1c1c" stroke-width="1.4"/>
<text x="1039.0" y="658.5" font-family="DejaVu Sans, Arial, sans-serif" font-size="9.5" font-weight="400" font-style="normal" fill="#1c1c1c" text-anchor="middle">filter</text>
<circle cx="1118.0" cy="652.5" r="34" fill="#ffffff" stroke="#1c1c1c" stroke-width="1.4"/>
<line x1="1118.0" y1="652.5" x2="1148.0" y2="652.5" stroke="#1c1c1c" stroke-width="0.9" stroke-linecap="butt"/>
<line x1="1118.0" y1="652.5" x2="1139.2" y2="673.7" stroke="#1c1c1c" stroke-width="0.9" stroke-linecap="butt"/>
<line x1="1118.0" y1="652.5" x2="1118.0" y2="682.5" stroke="#1c1c1c" stroke-width="0.9" stroke-linecap="butt"/>
<line x1="1118.0" y1="652.5" x2="1096.8" y2="673.7" stroke="#1c1c1c" stroke-width="0.9" stroke-linecap="butt"/>
<line x1="1118.0" y1="652.5" x2="1088.0" y2="652.5" stroke="#1c1c1c" stroke-width="0.9" stroke-linecap="butt"/>
<line x1="1118.0" y1="652.5" x2="1096.8" y2="631.3" stroke="#1c1c1c" stroke-width="0.9" stroke-linecap="butt"/>
<line x1="1118.0" y1="652.5" x2="1118.0" y2="622.5" stroke="#1c1c1c" stroke-width="0.9" stroke-linecap="butt"/>
<line x1="1118.0" y1="652.5" x2="1139.2" y2="631.3" stroke="#1c1c1c" stroke-width="0.9" stroke-linecap="butt"/>
<text x="1118.0" y="729.0" font-family="DejaVu Sans, Arial, sans-serif" font-size="9.5" font-weight="400" font-style="normal" fill="#1c1c1c" text-anchor="middle">EC-vifte</text>
<rect x="1166.0" y="582.0" width="46.0" height="141.0" rx="0" fill="#f7ded2" stroke="#1c1c1c" stroke-width="1.4"/>
<text x="1189.0" y="658.5" font-family="DejaVu Sans, Arial, sans-serif" font-size="10" font-weight="400" font-style="normal" fill="#c8541f" text-anchor="middle">PTC</text>
<line x1="1242.0" y1="584.0" x2="1286.0" y2="723.0" stroke="#1c1c1c" stroke-width="2.0" stroke-linecap="butt"/>
<text x="1264.0" y="729.0" font-family="DejaVu Sans, Arial, sans-serif" font-size="9.5" font-weight="400" font-style="normal" fill="#1c1c1c" text-anchor="middle">spjeld</text>
<rect x="1310.0" y="594.0" width="60.0" height="40.0" rx="0" fill="#e3ecf1" stroke="#1c1c1c" stroke-width="1.4"/>
<text x="1340.0" y="618.0" font-family="DejaVu Sans, Arial, sans-serif" font-size="9.5" font-weight="400" font-style="normal" fill="#2f6f8f" text-anchor="middle">SHT40</text>
<rect x="1310.0" y="656.0" width="60.0" height="40.0" rx="0" fill="#f7ded2" stroke="#1c1c1c" stroke-width="1.4"/>
<text x="1340.0" y="680.0" font-family="DejaVu Sans, Arial, sans-serif" font-size="9.5" font-weight="400" font-style="normal" fill="#c8541f" text-anchor="middle">NTC</text>
<rect x="1396.0" y="586.0" width="72.0" height="133.0" rx="0" fill="#ffffff" stroke="#1c1c1c" stroke-width="1.4"/>
<text x="1432.0" y="644.0" font-family="DejaVu Sans, Arial, sans-serif" font-size="10" font-weight="400" font-style="normal" fill="#1c1c1c" text-anchor="middle">PCBA</text>
<path d="M 950.0 606.0 L 1004.0 606.0" fill="none" stroke="#c8541f" stroke-width="2.2" marker-end="url(#arw)"/>
<text x="948.0" y="590.0" font-family="DejaVu Sans, Arial, sans-serif" font-size="10" font-weight="400" font-style="normal" fill="#c8541f" text-anchor="end">romluft inn</text>
<path d="M 1476.0 709.0 L 1526.0 709.0" fill="none" stroke="#2f6f8f" stroke-width="2.4" marker-end="url(#arb)"/>
<text x="1530.0" y="705.0" font-family="DejaVu Sans, Arial, sans-serif" font-size="10" font-weight="400" font-style="normal" fill="#2f6f8f" text-anchor="start">avtrekk</text>
<line x1="1010.0" y1="765.0" x2="1480.0" y2="765.0" stroke="#7a2f1e" stroke-width="1.0" stroke-linecap="butt"/>
<line x1="1010.0" y1="759.0" x2="1010.0" y2="771.0" stroke="#7a2f1e" stroke-width="1.0" stroke-linecap="butt"/>
<line x1="1480.0" y1="759.0" x2="1480.0" y2="771.0" stroke="#7a2f1e" stroke-width="1.0" stroke-linecap="butt"/>
<text x="1245.0" y="758.0" font-family="DejaVu Sans, Arial, sans-serif" font-size="12" font-weight="400" font-style="normal" fill="#7a2f1e" text-anchor="middle">320</text>
<text x="150.0" y="866.0" font-family="DejaVu Sans, Arial, sans-serif" font-size="13" font-weight="700" font-style="normal" fill="#1c1c1c" text-anchor="start">POSISJONER</text>
<text x="150.0" y="888.0" font-family="DejaVu Sans, Arial, sans-serif" font-size="11.5" font-weight="400" font-style="normal" fill="#1c1c1c" text-anchor="start">1  Hengerskinne O16 mm, 8 glidekroker, maks 12 kg fordelt</text>
<text x="150.0" y="907.0" font-family="DejaVu Sans, Arial, sans-serif" font-size="11.5" font-weight="400" font-style="normal" fill="#1c1c1c" text-anchor="start">2  Ytterduk 210D ripstop m/TPU-laminat, FR-behandlet</text>
<text x="150.0" y="926.0" font-family="DejaVu Sans, Arial, sans-serif" font-size="11.5" font-weight="400" font-style="normal" fill="#1c1c1c" text-anchor="start">3  Rammerar alu 6063-T5, O22 x 1,2 mm, klaranodisert</text>
<text x="150.0" y="945.0" font-family="DejaVu Sans, Arial, sans-serif" font-size="11.5" font-weight="400" font-style="normal" fill="#1c1c1c" text-anchor="start">4  Fordelingsplenum PA12 (MJF) med 6 dyseporter</text>
<text x="150.0" y="964.0" font-family="DejaVu Sans, Arial, sans-serif" font-size="11.5" font-weight="400" font-style="normal" fill="#1c1c1c" text-anchor="start">5  Klimamodul, kamlaser 2 x 90 gr. + jordet blindkontakt</text>
<text x="150.0" y="983.0" font-family="DejaVu Sans, Arial, sans-serif" font-size="11.5" font-weight="400" font-style="normal" fill="#1c1c1c" text-anchor="start">6  Fotmodul med lasbart hjul, 6 mm nivajustering</text>
<text x="610.0" y="866.0" font-family="DejaVu Sans, Arial, sans-serif" font-size="13" font-weight="700" font-style="normal" fill="#1c1c1c" text-anchor="start">KONSTRUKSJONSDATA</text>
<text x="610.0" y="888.0" font-family="DejaVu Sans, Arial, sans-serif" font-size="11.5" font-weight="400" font-style="normal" fill="#1c1c1c" text-anchor="start">Utfoldet 640 x 640 x 1780 mm - sammenlagt 780 x 220 x 180 mm</text>
<text x="610.0" y="907.0" font-family="DejaVu Sans, Arial, sans-serif" font-size="11.5" font-weight="400" font-style="normal" fill="#1c1c1c" text-anchor="start">Vekt 8,4 kg (ramme og duk 5,9 kg / klimamodul 2,5 kg)</text>
<text x="610.0" y="926.0" font-family="DejaVu Sans, Arial, sans-serif" font-size="11.5" font-weight="400" font-style="normal" fill="#1c1c1c" text-anchor="start">Luftmengde 145 m3/h fritt, 95 m3/h ved 60 Pa systemtrykk</text>
<text x="610.0" y="945.0" font-family="DejaVu Sans, Arial, sans-serif" font-size="11.5" font-weight="400" font-style="normal" fill="#1c1c1c" text-anchor="start">Effekt 724 W maks (PTC 700 W), 3,15 A ved 230 V, klasse I, IPX2</text>
<text x="610.0" y="964.0" font-family="DejaVu Sans, Arial, sans-serif" font-size="11.5" font-weight="400" font-style="normal" fill="#1c1c1c" text-anchor="start">Temperatur ved plagg 32-38 C, NTC-kutt 55 C, termosikring 78/98 C</text>
<text x="610.0" y="983.0" font-family="DejaVu Sans, Arial, sans-serif" font-size="11.5" font-weight="400" font-style="normal" fill="#1c1c1c" text-anchor="start">Kapasitet 4 kg vatt toy (ca. 0,8 l fritt vann) - syklus ca. 90 min</text>
<rect x="1180.0" y="848.0" width="442.0" height="182.0" rx="0" fill="none" stroke="#1c1c1c" stroke-width="1.6"/>
<line x1="1180.0" y1="900.0" x2="1622.0" y2="900.0" stroke="#1c1c1c" stroke-width="1.2" stroke-linecap="butt"/>
<line x1="1180.0" y1="962.0" x2="1622.0" y2="962.0" stroke="#1c1c1c" stroke-width="1.2" stroke-linecap="butt"/>
<line x1="1430.0" y1="900.0" x2="1430.0" y2="1048.0" stroke="#1c1c1c" stroke-width="1.2" stroke-linecap="butt"/>
<text x="1194.0" y="878.0" font-family="DejaVu Sans, Arial, sans-serif" font-size="22" font-weight="700" font-style="normal" fill="#1c1c1c" text-anchor="start">TORKA T1</text>
<text x="1194.0" y="924.0" font-family="DejaVu Sans, Arial, sans-serif" font-size="12" font-weight="400" font-style="normal" fill="#1c1c1c" text-anchor="start">Konseptriss, hovedmal og luftvei</text>
<text x="1194.0" y="944.0" font-family="DejaVu Sans, Arial, sans-serif" font-size="12" font-weight="400" font-style="normal" fill="#1c1c1c" text-anchor="start">Sammenleggbart torkerom</text>
<text x="1194.0" y="984.0" font-family="DejaVu Sans, Arial, sans-serif" font-size="11.5" font-weight="400" font-style="normal" fill="#1c1c1c" text-anchor="start">Alle mal i mm</text>
<text x="1194.0" y="1003.0" font-family="DejaVu Sans, Arial, sans-serif" font-size="11.5" font-weight="400" font-style="normal" fill="#1c1c1c" text-anchor="start">Generelle toleranser ISO 2768-m</text>
<text x="1194.0" y="1022.0" font-family="DejaVu Sans, Arial, sans-serif" font-size="11.5" font-weight="400" font-style="normal" fill="#1c1c1c" text-anchor="start">Malestokk der annet ikke er angitt: 1:12</text>
<text x="1442.0" y="924.0" font-family="DejaVu Sans, Arial, sans-serif" font-size="12" font-weight="600" font-style="normal" fill="#1c1c1c" text-anchor="start">Rev. A</text>
<text x="1442.0" y="944.0" font-family="DejaVu Sans, Arial, sans-serif" font-size="12" font-weight="400" font-style="normal" fill="#1c1c1c" text-anchor="start">Ark 1 av 1</text>
<text x="1442.0" y="984.0" font-family="DejaVu Sans, Arial, sans-serif" font-size="11" font-weight="400" font-style="normal" fill="#1c1c1c" text-anchor="start">Tredje vinkels projeksjon</text>
<text x="1442.0" y="1003.0" font-family="DejaVu Sans, Arial, sans-serif" font-size="11" font-weight="400" font-style="normal" fill="#1c1c1c" text-anchor="start">Status: konsept /</text>
<text x="1442.0" y="1022.0" font-family="DejaVu Sans, Arial, sans-serif" font-size="11" font-weight="400" font-style="normal" fill="#1c1c1c" text-anchor="start">ikke for produksjon</text>
</svg>