<svg xmlns="http://www.w3.org/2000/svg" viewBox="0 0 1600 1000" width="1600" height="1000">
<defs>
  <marker id="m1" viewBox="0 0 10 10" refX="5" refY="5" markerWidth="6"
          markerHeight="6" orient="auto"><path d="M 2 2 L 8 5 L 2 8 z"
          fill="#a5442a"/></marker>
</defs>
<rect x="0.0" y="0.0" width="1600.0" height="1000.0" fill="#faf8f5" stroke="none" stroke-width="1" rx="0"/>
<text x="46.0" y="60.0" font-family="Helvetica, Arial, sans-serif" font-size="30" fill="#241f1b" text-anchor="start" font-weight="bold" letter-spacing="3">LUNA</text>
<text x="150.0" y="60.0" font-family="Helvetica, Arial, sans-serif" font-size="17" fill="#7a736c" text-anchor="start" font-weight="normal">— designark, utkast 2</text>
<text x="46.0" y="86.0" font-family="Helvetica, Arial, sans-serif" font-size="12.5" fill="#7a736c" text-anchor="start" font-weight="normal">Mykt lysobjekt, 580 mm. Keramikkbase, ullkledd kropp, varm glød innenfra. Skal lese som møbel, ikke som maskin.</text>
<line x1="46.0" y1="102.0" x2="1554.0" y2="102.0" stroke="#241f1b" stroke-width="1.4"/>
<rect x="46.0" y="124.0" width="470.0" height="796.0" fill="#ffffff" stroke="#c9c0b5" stroke-width="1.2" rx="3"/>
<text x="62.0" y="150.0" font-family="Helvetica, Arial, sans-serif" font-size="13" fill="#241f1b" text-anchor="start" font-weight="bold" letter-spacing="0.4">1   Oppriss — proporsjon</text>
<path d="M 153.0 866.0 L 153.0 780.4 Q 153.0 772.4 153.7 772.4 L 370.7 772.4 Q 371.4 772.4 371.4 780.4 L 371.4 866.0 Z" fill="#b6aea1" stroke="#241f1b" stroke-width="1.4" stroke-linejoin="round" stroke-linecap="round" opacity="1.0"/>
<path d="M 373.0 772.4 C 373.7 762.0 376.6 728.2 377.6 710.0 C 378.7 691.8 376.9 677.5 379.2 663.2 C 381.5 648.9 389.1 635.2 391.7 624.2 C 394.3 613.2 397.9 605.4 394.8 596.9 C 391.7 588.4 382.6 579.6 373.0 573.5 C 363.3 567.4 341.5 566.1 337.1 560.2 C 332.7 554.4 344.6 548.5 346.4 538.4 C 348.3 528.3 349.0 513.7 348.0 499.4 C 347.0 485.1 345.4 464.6 340.2 452.6 C 335.0 440.6 326.9 433.9 316.8 427.6 C 306.7 421.4 288.5 418.5 279.4 415.2 C 270.3 411.8 267.9 407.4 262.2 407.4 C 256.5 407.4 254.1 411.8 245.0 415.2 C 235.9 418.5 217.7 421.4 207.6 427.6 C 197.5 433.9 189.4 440.6 184.2 452.6 C 179.0 464.6 177.4 485.1 176.4 499.4 C 175.4 513.7 176.1 528.3 178.0 538.4 C 179.8 548.5 191.7 554.4 187.3 560.2 C 182.9 566.1 161.1 567.4 151.4 573.5 C 141.8 579.6 132.7 588.4 129.6 596.9 C 126.5 605.4 130.1 613.2 132.7 624.2 C 135.3 635.2 142.9 648.9 145.2 663.2 C 147.5 677.5 145.7 691.8 146.8 710.0 C 147.8 728.2 150.7 762.0 151.4 772.4 Z" fill="#d9c7b4" stroke="#241f1b" stroke-width="1.4" stroke-linejoin="round" stroke-linecap="round" opacity="1.0"/>
<clipPath id="kropp"><path d="M 373.0 772.4 C 373.7 762.0 376.6 728.2 377.6 710.0 C 378.7 691.8 376.9 677.5 379.2 663.2 C 381.5 648.9 389.1 635.2 391.7 624.2 C 394.3 613.2 397.9 605.4 394.8 596.9 C 391.7 588.4 382.6 579.6 373.0 573.5 C 363.3 567.4 341.5 566.1 337.1 560.2 C 332.7 554.4 344.6 548.5 346.4 538.4 C 348.3 528.3 349.0 513.7 348.0 499.4 C 347.0 485.1 345.4 464.6 340.2 452.6 C 335.0 440.6 326.9 433.9 316.8 427.6 C 306.7 421.4 288.5 418.5 279.4 415.2 C 270.3 411.8 267.9 407.4 262.2 407.4 C 256.5 407.4 254.1 411.8 245.0 415.2 C 235.9 418.5 217.7 421.4 207.6 427.6 C 197.5 433.9 189.4 440.6 184.2 452.6 C 179.0 464.6 177.4 485.1 176.4 499.4 C 175.4 513.7 176.1 528.3 178.0 538.4 C 179.8 548.5 191.7 554.4 187.3 560.2 C 182.9 566.1 161.1 567.4 151.4 573.5 C 141.8 579.6 132.7 588.4 129.6 596.9 C 126.5 605.4 130.1 613.2 132.7 624.2 C 135.3 635.2 142.9 648.9 145.2 663.2 C 147.5 677.5 145.7 691.8 146.8 710.0 C 147.8 728.2 150.7 762.0 151.4 772.4 Z"/></clipPath>
<g clip-path="url(#kropp)">
<rect x="121.8" y="563.4" width="7.0" height="302.6" fill="#b0663a" opacity="0.7"/>
<rect x="162.4" y="563.4" width="4.7" height="302.6" fill="#9a9a9a" opacity="0.7"/>
<rect x="196.7" y="563.4" width="10.1" height="302.6" fill="#b0663a" opacity="0.7"/>
<rect x="245.0" y="563.4" width="5.5" height="302.6" fill="#9a9a9a" opacity="0.7"/>
<rect x="277.0" y="563.4" width="8.6" height="302.6" fill="#b0663a" opacity="0.7"/>
<rect x="326.2" y="563.4" width="4.7" height="302.6" fill="#b0663a" opacity="0.7"/>
<rect x="380.0" y="563.4" width="10.9" height="302.6" fill="#9a9a9a" opacity="0.7"/>
<rect x="417.4" y="563.4" width="6.2" height="302.6" fill="#b0663a" opacity="0.7"/>
<rect x="474.4" y="563.4" width="7.8" height="302.6" fill="#9a9a9a" opacity="0.7"/>
</g>
<circle cx="235.7" cy="501.0" r="5.5" fill="#fff4e2" stroke="#241f1b" stroke-width="0.8"/>
<circle cx="288.7" cy="501.0" r="5.5" fill="#fff4e2" stroke="#241f1b" stroke-width="0.8"/>
<path d="M 245.0 525.9 Q 262.2 529.0 279.4 525.9" fill="none" stroke="#a89680" stroke-width="1.2" stroke-linejoin="round" stroke-linecap="round" opacity="1.0"/>
<g clip-path="url(#kropp)">
<path d="M 187.3 596.1 C 231.0 574.3 293.4 574.3 337.1 597.7 L 337.1 619.5 C 293.4 597.7 231.0 597.7 187.3 618.0 Z" fill="#b0663a" stroke="#241f1b" stroke-width="1.1" stroke-linejoin="round" stroke-linecap="round" opacity="1.0"/>
<path d="M 302.8 608.6 C 323.0 622.6 327.7 642.9 319.9 663.2 L 293.4 660.1 C 301.2 641.4 298.1 622.6 282.5 610.2 Z" fill="#b0663a" stroke="#241f1b" stroke-width="1.1" stroke-linejoin="round" stroke-linecap="round" opacity="1.0"/>
</g>
<line x1="106.2" y1="866.0" x2="418.2" y2="866.0" stroke="#241f1b" stroke-width="1.4"/>
<line x1="110.1" y1="866.0" x2="103.1" y2="874.0" stroke="#7a736c" stroke-width="0.8"/>
<line x1="135.1" y1="866.0" x2="128.1" y2="874.0" stroke="#7a736c" stroke-width="0.8"/>
<line x1="160.0" y1="866.0" x2="153.0" y2="874.0" stroke="#7a736c" stroke-width="0.8"/>
<line x1="185.0" y1="866.0" x2="178.0" y2="874.0" stroke="#7a736c" stroke-width="0.8"/>
<line x1="209.9" y1="866.0" x2="202.9" y2="874.0" stroke="#7a736c" stroke-width="0.8"/>
<line x1="234.9" y1="866.0" x2="227.9" y2="874.0" stroke="#7a736c" stroke-width="0.8"/>
<line x1="259.9" y1="866.0" x2="252.9" y2="874.0" stroke="#7a736c" stroke-width="0.8"/>
<line x1="284.8" y1="866.0" x2="277.8" y2="874.0" stroke="#7a736c" stroke-width="0.8"/>
<line x1="309.8" y1="866.0" x2="302.8" y2="874.0" stroke="#7a736c" stroke-width="0.8"/>
<line x1="334.7" y1="866.0" x2="327.7" y2="874.0" stroke="#7a736c" stroke-width="0.8"/>
<line x1="359.7" y1="866.0" x2="352.7" y2="874.0" stroke="#7a736c" stroke-width="0.8"/>
<line x1="384.7" y1="866.0" x2="377.7" y2="874.0" stroke="#7a736c" stroke-width="0.8"/>
<line x1="409.6" y1="866.0" x2="402.6" y2="874.0" stroke="#7a736c" stroke-width="0.8"/>
<line x1="443.2" y1="866.0" x2="443.2" y2="413.6" stroke="#a5442a" stroke-width="1" marker-start="url(#m1)" marker-end="url(#m1)"/>
<g transform="translate(437.2,639.8) rotate(-90)"><text x="0.0" y="0.0" font-family="Helvetica, Arial, sans-serif" font-size="11" fill="#a5442a" text-anchor="middle" font-weight="normal">580</text></g>
<line x1="469.2" y1="866.0" x2="469.2" y2="772.4" stroke="#a5442a" stroke-width="1" marker-start="url(#m1)" marker-end="url(#m1)"/>
<g transform="translate(463.2,819.2) rotate(-90)"><text x="0.0" y="0.0" font-family="Helvetica, Arial, sans-serif" font-size="11" fill="#a5442a" text-anchor="middle" font-weight="normal">120</text></g>
<line x1="106.2" y1="561.8" x2="435.2" y2="561.8" stroke="#c9c0b5" stroke-width="0.9" stroke-dasharray="4 3"/>
<text x="103.1" y="565.8" font-family="Helvetica, Arial, sans-serif" font-size="10" fill="#7a736c" text-anchor="end" font-weight="normal">390  halslinje</text>
<line x1="106.2" y1="632.0" x2="435.2" y2="632.0" stroke="#c9c0b5" stroke-width="0.9" stroke-dasharray="4 3"/>
<text x="103.1" y="636.0" font-family="Helvetica, Arial, sans-serif" font-size="10" fill="#7a736c" text-anchor="end" font-weight="normal">300  skjerf</text>
<line x1="106.2" y1="772.4" x2="435.2" y2="772.4" stroke="#c9c0b5" stroke-width="0.9" stroke-dasharray="4 3"/>
<text x="103.1" y="776.4" font-family="Helvetica, Arial, sans-serif" font-size="10" fill="#7a736c" text-anchor="end" font-weight="normal">120  skjøt</text>
<line x1="129.6" y1="394.9" x2="394.8" y2="394.9" stroke="#a5442a" stroke-width="1" marker-start="url(#m1)" marker-end="url(#m1)"/>
<text x="262.2" y="388.9" font-family="Helvetica, Arial, sans-serif" font-size="11" fill="#a5442a" text-anchor="middle" font-weight="normal">340  bredeste punkt</text>
<line x1="153.0" y1="896.0" x2="371.4" y2="896.0" stroke="#a5442a" stroke-width="1" marker-start="url(#m1)" marker-end="url(#m1)"/>
<text x="262.2" y="890.0" font-family="Helvetica, Arial, sans-serif" font-size="11" fill="#a5442a" text-anchor="middle" font-weight="normal">Ø280  base</text>
<text x="62.0" y="906.0" font-family="Helvetica, Arial, sans-serif" font-size="10.5" fill="#7a736c" text-anchor="start" font-weight="normal">Bredeste punkt er bredere enn foten — Luna hviler, den står ikke.</text>
<rect x="532.0" y="124.0" width="560.0" height="796.0" fill="#ffffff" stroke="#c9c0b5" stroke-width="1.2" rx="3"/>
<text x="548.0" y="150.0" font-family="Helvetica, Arial, sans-serif" font-size="13" fill="#241f1b" text-anchor="start" font-weight="bold" letter-spacing="0.4">2   Profil, 8° fremoverlent hode — og hva som velter den</text>
<path d="M 702.8 690.0 L 702.8 604.4 Q 702.8 596.4 703.5 596.4 L 920.5 596.4 Q 921.2 596.4 921.2 604.4 L 921.2 690.0 Z" fill="#b6aea1" stroke="#241f1b" stroke-width="1.4" stroke-linejoin="round" stroke-linecap="round" opacity="1.0"/>
<g transform="translate(812.0,0) scale(0.9118,1) translate(-812.0,0)">
<path d="M 922.8 596.4 C 923.5 586.0 926.4 552.2 927.4 534.0 C 928.5 515.8 926.7 501.5 929.0 487.2 C 931.3 472.9 938.9 459.2 941.5 448.2 C 944.1 437.1 947.7 429.3 944.6 420.9 C 941.5 412.4 932.4 403.6 922.8 397.5 C 913.1 391.4 891.3 390.1 886.9 384.2 C 882.5 378.4 894.4 372.5 896.2 362.4 C 898.1 352.3 898.8 337.7 897.8 323.4 C 896.8 309.1 895.2 288.6 890.0 276.6 C 884.8 264.6 876.7 257.9 866.6 251.6 C 856.5 245.4 838.3 242.5 829.2 239.2 C 820.1 235.8 817.7 231.4 812.0 231.4 C 806.3 231.4 803.9 235.8 794.8 239.2 C 785.7 242.5 767.5 245.4 757.4 251.6 C 747.3 257.9 739.2 264.6 734.0 276.6 C 728.8 288.6 727.2 309.1 726.2 323.4 C 725.2 337.7 725.9 352.3 727.8 362.4 C 729.6 372.5 741.5 378.4 737.1 384.2 C 732.7 390.1 710.9 391.4 701.2 397.5 C 691.6 403.6 682.5 412.4 679.4 420.9 C 676.3 429.3 679.9 437.1 682.5 448.2 C 685.1 459.2 692.7 472.9 695.0 487.2 C 697.3 501.5 695.5 515.8 696.6 534.0 C 697.6 552.2 700.5 586.0 701.2 596.4 Z" fill="none" stroke="#7a736c" stroke-width="1.0" stroke-linejoin="round" stroke-linecap="round" opacity="1.0" stroke-dasharray="4 3"/>
<path d="M 922.8 596.4 C 923.5 586.0 926.4 552.2 927.4 534.0 C 928.5 515.8 926.7 501.5 929.0 487.2 C 931.3 472.9 938.9 459.2 941.5 448.2 C 944.1 437.1 947.7 429.3 944.6 420.9 C 941.5 412.4 932.4 403.6 922.8 397.5 C 913.1 391.4 890.9 390.1 886.9 384.2 C 882.8 378.4 895.4 372.7 898.5 362.6 C 901.6 352.6 904.5 338.2 905.4 324.0 C 906.4 309.8 907.7 289.5 904.2 277.6 C 900.7 265.8 893.7 259.1 884.5 252.9 C 875.4 246.8 857.9 243.9 849.2 240.6 C 840.5 237.2 837.9 232.8 832.2 232.8 C 826.5 232.8 824.5 237.2 815.2 240.6 C 805.9 243.9 787.3 246.8 776.4 252.9 C 765.5 259.1 756.6 265.8 749.7 277.6 C 742.9 289.5 738.5 309.8 735.5 324.0 C 732.5 338.2 731.3 352.6 731.6 362.6 C 731.9 372.7 742.2 378.4 737.1 384.2 C 732.1 390.1 710.9 391.4 701.2 397.5 C 691.6 403.6 682.5 412.4 679.4 420.9 C 676.3 429.3 679.9 437.1 682.5 448.2 C 685.1 459.2 692.7 472.9 695.0 487.2 C 697.3 501.5 695.5 515.8 696.6 534.0 C 697.6 552.2 700.5 586.0 701.2 596.4 Z" fill="#d9c7b4" stroke="#241f1b" stroke-width="1.4" stroke-linejoin="round" stroke-linecap="round" opacity="1.0"/>
</g>
<line x1="812.0" y1="384.2" x2="812.0" y2="204.8" stroke="#7a736c" stroke-width="0.9" stroke-dasharray="3 3"/>
<line x1="812.0" y1="384.2" x2="837.0" y2="206.6" stroke="#a5442a" stroke-width="1.3"/>
<path d="M 812.0 204.8 A 179.4 179.4 0 0 1 837.0 206.6" fill="none" stroke="#a5442a" stroke-width="1"/>
<text x="834.0" y="196.8" font-family="Helvetica, Arial, sans-serif" font-size="11.5" fill="#a5442a" text-anchor="start" font-weight="bold">8° fremover</text>
<text x="804.0" y="196.8" font-family="Helvetica, Arial, sans-serif" font-size="10" fill="#7a736c" text-anchor="end" font-weight="normal">loddrett</text>
<circle cx="812.0" cy="609.9" r="7" fill="none" stroke="#a5442a" stroke-width="1.4"/>
<path d="M 805.0 609.9 A 7 7 0 0 1 819.0 609.9 Z" fill="#a5442a"/>
<path d="M 819.0 609.9 A 7 7 0 0 1 805.0 609.9 Z" fill="none"/>
<line x1="800.0" y1="609.9" x2="738.0" y2="609.9" stroke="#a5442a" stroke-width="0.9"/>
<text x="732.0" y="613.9" font-family="Helvetica, Arial, sans-serif" font-size="10.5" fill="#a5442a" text-anchor="end" font-weight="normal">tyngdepunkt 103 mm</text>
<line x1="921.2" y1="690.0" x2="812.0" y2="609.9" stroke="#a5442a" stroke-width="1" stroke-dasharray="5 3"/>
<path d="M 921.2 656.0 A 34 34 0 0 1 893.8 669.9" fill="none" stroke="#a5442a" stroke-width="1"/>
<text x="929.2" y="646.0" font-family="Helvetica, Arial, sans-serif" font-size="11" fill="#a5442a" text-anchor="start" font-weight="bold">53,8°</text>
<line x1="656.0" y1="690.0" x2="968.0" y2="690.0" stroke="#241f1b" stroke-width="1.4"/>
<rect x="552.0" y="740.0" width="520.0" height="160.0" fill="#f6f2ec" stroke="#c9c0b5" stroke-width="1" rx="3"/>
<text x="568.0" y="768.0" font-family="Helvetica, Arial, sans-serif" font-size="10.5" fill="#7a736c" text-anchor="start" font-weight="normal">Totalvekt</text>
<text x="796.0" y="768.0" font-family="Helvetica, Arial, sans-serif" font-size="11.5" fill="#241f1b" text-anchor="end" font-weight="bold">6,00 kg</text>
<text x="568.0" y="792.0" font-family="Helvetica, Arial, sans-serif" font-size="10.5" fill="#7a736c" text-anchor="start" font-weight="normal">Tyngdepunkt</text>
<text x="796.0" y="792.0" font-family="Helvetica, Arial, sans-serif" font-size="11.5" fill="#241f1b" text-anchor="end" font-weight="bold">103 mm over gulv</text>
<text x="568.0" y="816.0" font-family="Helvetica, Arial, sans-serif" font-size="10.5" fill="#7a736c" text-anchor="start" font-weight="normal">Veltevinkel</text>
<text x="796.0" y="816.0" font-family="Helvetica, Arial, sans-serif" font-size="11.5" fill="#241f1b" text-anchor="end" font-weight="bold">53,8°   (krav ≥ 30°)</text>
<text x="828.0" y="768.0" font-family="Helvetica, Arial, sans-serif" font-size="10.5" fill="#7a736c" text-anchor="start" font-weight="normal">Veltearbeid</text>
<text x="1056.0" y="768.0" font-family="Helvetica, Arial, sans-serif" font-size="11.5" fill="#241f1b" text-anchor="end" font-weight="bold">4,18 J</text>
<text x="828.0" y="792.0" font-family="Helvetica, Arial, sans-serif" font-size="10.5" fill="#7a736c" text-anchor="start" font-weight="normal">Veltekraft @ 400 mm</text>
<text x="1056.0" y="792.0" font-family="Helvetica, Arial, sans-serif" font-size="11.5" fill="#241f1b" text-anchor="end" font-weight="bold">20,6 N</text>
<text x="828.0" y="816.0" font-family="Helvetica, Arial, sans-serif" font-size="10.5" fill="#7a736c" text-anchor="start" font-weight="normal">Uten ballast i det hele tatt</text>
<text x="1056.0" y="816.0" font-family="Helvetica, Arial, sans-serif" font-size="11.5" fill="#a5442a" text-anchor="end" font-weight="bold">37,4°  /  8,6 N</text>
<line x1="568.0" y1="848.0" x2="1056.0" y2="848.0" stroke="#c9c0b5" stroke-width="1"/>
<text x="568.0" y="868.0" font-family="Helvetica, Arial, sans-serif" font-size="10.5" fill="#241f1b" text-anchor="start" font-weight="bold">Vinkelkravet på 30° holder også helt uten ballast — det er altså ikke vinkelen som dimensjonerer den.</text>
<text x="568.0" y="885.0" font-family="Helvetica, Arial, sans-serif" font-size="10.5" fill="#7a736c" text-anchor="start" font-weight="normal">Det som skiller er hvor hardt du må dytte. Sett kravet i veltearbeid (mål: ≥ 4 J), ikke i grader.</text>
<rect x="1108.0" y="124.0" width="446.0" height="372.0" fill="#ffffff" stroke="#c9c0b5" stroke-width="1.2" rx="3"/>
<text x="1124.0" y="150.0" font-family="Helvetica, Arial, sans-serif" font-size="13" fill="#241f1b" text-anchor="start" font-weight="bold" letter-spacing="0.4">3   CMF — farge, materiale, finish</text>
<rect x="1126.0" y="174.0" width="62.0" height="42.0" fill="#d9c7b4" stroke="#241f1b" stroke-width="1" rx="3"/>
<text x="1200.0" y="189.0" font-family="Helvetica, Arial, sans-serif" font-size="11.5" fill="#241f1b" text-anchor="start" font-weight="bold">Grunnfarge trekk</text>
<text x="1200.0" y="203.0" font-family="Helvetica, Arial, sans-serif" font-size="10.5" fill="#a5442a" text-anchor="start" font-weight="normal">NCS S 2010-Y30R</text>
<text x="1200.0" y="216.0" font-family="Helvetica, Arial, sans-serif" font-size="10" fill="#7a736c" text-anchor="start" font-weight="normal">Ull/bomull 60/40, vevd, 280–340 g/m²</text>
<rect x="1126.0" y="230.0" width="62.0" height="42.0" fill="#b0663a" stroke="#241f1b" stroke-width="1" rx="3"/>
<text x="1200.0" y="245.0" font-family="Helvetica, Arial, sans-serif" font-size="11.5" fill="#241f1b" text-anchor="start" font-weight="bold">Stripe, dempet oransje</text>
<text x="1200.0" y="259.0" font-family="Helvetica, Arial, sans-serif" font-size="10.5" fill="#a5442a" text-anchor="start" font-weight="normal">NCS S 3040-Y60R</text>
<text x="1200.0" y="272.0" font-family="Helvetica, Arial, sans-serif" font-size="10" fill="#7a736c" text-anchor="start" font-weight="normal">Bredde 6–14 mm, avstand 40–90 mm</text>
<rect x="1126.0" y="286.0" width="62.0" height="42.0" fill="#9a9a9a" stroke="#241f1b" stroke-width="1" rx="3"/>
<text x="1200.0" y="301.0" font-family="Helvetica, Arial, sans-serif" font-size="11.5" fill="#241f1b" text-anchor="start" font-weight="bold">Stripe, grå</text>
<text x="1200.0" y="315.0" font-family="Helvetica, Arial, sans-serif" font-size="10.5" fill="#a5442a" text-anchor="start" font-weight="normal">NCS S 4000-N</text>
<text x="1200.0" y="328.0" font-family="Helvetica, Arial, sans-serif" font-size="10" fill="#7a736c" text-anchor="start" font-weight="normal">Aldri to like avstander etter hverandre</text>
<rect x="1126.0" y="342.0" width="62.0" height="42.0" fill="#b6aea1" stroke="#241f1b" stroke-width="1" rx="3"/>
<text x="1200.0" y="357.0" font-family="Helvetica, Arial, sans-serif" font-size="11.5" fill="#241f1b" text-anchor="start" font-weight="bold">Base, sandgrå</text>
<text x="1200.0" y="371.0" font-family="Helvetica, Arial, sans-serif" font-size="10.5" fill="#a5442a" text-anchor="start" font-weight="normal">Halvmatt 10–20 GU @ 60°</text>
<text x="1200.0" y="384.0" font-family="Helvetica, Arial, sans-serif" font-size="10" fill="#7a736c" text-anchor="start" font-weight="normal">Dreid steintøy, gods 8–10 mm</text>
<rect x="1126.0" y="398.0" width="62.0" height="42.0" fill="#ffbe7d" stroke="#241f1b" stroke-width="1" rx="3"/>
<text x="1200.0" y="413.0" font-family="Helvetica, Arial, sans-serif" font-size="11.5" fill="#241f1b" text-anchor="start" font-weight="bold">Lys ut av stoffet</text>
<text x="1200.0" y="427.0" font-family="Helvetica, Arial, sans-serif" font-size="10.5" fill="#a5442a" text-anchor="start" font-weight="normal">2700 K, CRI ≥ 95</text>
<text x="1200.0" y="440.0" font-family="Helvetica, Arial, sans-serif" font-size="10" fill="#7a736c" text-anchor="start" font-weight="normal">120–180 lm — glød, ikke leselys</text>
<text x="1126.0" y="464.0" font-family="Helvetica, Arial, sans-serif" font-size="10.5" fill="#241f1b" text-anchor="start" font-weight="bold">Trekket skal være flammehemmende og bestå EN 1021-1 og -2.</text>
<text x="1126.0" y="480.0" font-family="Helvetica, Arial, sans-serif" font-size="10" fill="#7a736c" text-anchor="start" font-weight="normal">Ikke valgfritt når tekstil ligger over en lyskilde.</text>
<rect x="1108.0" y="512.0" width="446.0" height="408.0" fill="#ffffff" stroke="#c9c0b5" stroke-width="1.2" rx="3"/>
<text x="1124.0" y="538.0" font-family="Helvetica, Arial, sans-serif" font-size="13" fill="#241f1b" text-anchor="start" font-weight="bold" letter-spacing="0.4">4   Lagpakke — fra LED til stoff</text>
<rect x="1134.0" y="568.0" width="133.8" height="44.0" fill="#ffe9c9" stroke="#241f1b" stroke-width="1" rx="0"/>
<text x="1281.8" y="588.0" font-family="Helvetica, Arial, sans-serif" font-size="10.5" fill="#241f1b" text-anchor="start" font-weight="normal">COB-bånd 24 V, 2700 K   ·   10 mm</text>
<text x="1281.8" y="603.0" font-family="Helvetica, Arial, sans-serif" font-size="9.5" fill="#7a736c" text-anchor="start" font-weight="normal">8 W over 1,2 m</text>
<rect x="1134.0" y="615.0" width="133.8" height="64.9" fill="#ffffff" stroke="#241f1b" stroke-width="1" rx="0"/>
<text x="1281.8" y="645.4" font-family="Helvetica, Arial, sans-serif" font-size="10.5" fill="#241f1b" text-anchor="start" font-weight="normal">Luftspalte   ·   25 mm</text>
<text x="1281.8" y="660.4" font-family="Helvetica, Arial, sans-serif" font-size="9.5" fill="#7a736c" text-anchor="start" font-weight="normal">hindrer synlige punkter</text>
<rect x="1134.0" y="682.9" width="133.8" height="32.8" fill="#e8eef2" stroke="#241f1b" stroke-width="1" rx="0"/>
<text x="1281.8" y="697.3" font-family="Helvetica, Arial, sans-serif" font-size="10.5" fill="#241f1b" text-anchor="start" font-weight="normal">Opal PC-diffusor   ·   2 mm</text>
<text x="1281.8" y="712.3" font-family="Helvetica, Arial, sans-serif" font-size="9.5" fill="#7a736c" text-anchor="start" font-weight="normal">transmisjon 45–60 %</text>
<rect x="1134.0" y="718.7" width="133.8" height="41.2" fill="#ffffff" stroke="#241f1b" stroke-width="1" rx="0"/>
<text x="1281.8" y="737.3" font-family="Helvetica, Arial, sans-serif" font-size="10.5" fill="#241f1b" text-anchor="start" font-weight="normal">Luftspalte   ·   8 mm</text>
<rect x="1134.0" y="762.9" width="133.8" height="57.9" fill="#f2ece2" stroke="#241f1b" stroke-width="1" rx="0"/>
<text x="1281.8" y="789.8" font-family="Helvetica, Arial, sans-serif" font-size="10.5" fill="#241f1b" text-anchor="start" font-weight="normal">PU-skum 30 kg/m³   ·   20 mm</text>
<text x="1281.8" y="804.8" font-family="Helvetica, Arial, sans-serif" font-size="9.5" fill="#7a736c" text-anchor="start" font-weight="normal">form og utjevning</text>
<rect x="1134.0" y="823.8" width="133.8" height="34.2" fill="#d9c7b4" stroke="#241f1b" stroke-width="1" rx="0"/>
<text x="1281.8" y="838.9" font-family="Helvetica, Arial, sans-serif" font-size="10.5" fill="#241f1b" text-anchor="start" font-weight="normal">Ull/bomull, FR-behandlet   ·   3 mm</text>
<text x="1281.8" y="853.9" font-family="Helvetica, Arial, sans-serif" font-size="9.5" fill="#7a736c" text-anchor="start" font-weight="normal">EN 1021-1/-2</text>
<defs><linearGradient id="glod" x1="0" y1="1" x2="0" y2="0"><stop offset="0" stop-color="#ffbe7d" stop-opacity="0.05"/><stop offset="1" stop-color="#ffbe7d" stop-opacity="0.9"/></linearGradient></defs>
<rect x="1462.0" y="568.0" width="54.0" height="290.0" fill="url(#glod)" stroke="#c9c0b5" stroke-width="1" rx="3"/>
<g transform="translate(1489.0,714.5) rotate(-90)"><text x="0.0" y="4.0" font-family="Helvetica, Arial, sans-serif" font-size="10" fill="#8a6a44" text-anchor="middle" font-weight="normal">glød, ikke punkter</text></g>
<text x="1134.0" y="900.0" font-family="Helvetica, Arial, sans-serif" font-size="10.5" fill="#7a736c" text-anchor="start" font-weight="normal">Rekkefølgen er ikke valgfri: uten de 25 mm ser du hver enkelt diode gjennom stoffet.</text>
<line x1="46.0" y1="944.0" x2="1554.0" y2="944.0" stroke="#c9c0b5" stroke-width="1"/>
<text x="46.0" y="966.0" font-family="Helvetica, Arial, sans-serif" font-size="10.5" fill="#7a736c" text-anchor="start" font-weight="normal">Stabilitetstall beregnet med stabilitet.py · CMF-prøvene er sRGB-tilnærminger til NCS-kodene og erstatter ikke fysiske fargeprøver</text>
<text x="1554.0" y="966.0" font-family="Helvetica, Arial, sans-serif" font-size="10.5" fill="#7a736c" text-anchor="end" font-weight="normal">Utkast 2 · ikke bygget</text>
</svg>